<svg width="124" height="62" viewBox="0 0 124 62" fill="none" xmlns="http://www.w3.org/2000/svg">
<path d="M24.2305 31.2933C32.4383 20.8731 55.0757 0 85.935 0C107.55 0 123.926 12.2949 124.001 12.3488C111.806 6.41023 63.5673 -3.24032 25.6047 31.894L24.2305 31.2909V31.2933Z" fill="#F6BE00"/>
<path d="M121.476 34.9795C122.294 34.9793 123.11 35.0429 123.917 35.1696V28.4614C122.346 28.2535 120.761 28.1532 119.176 28.161C107.384 28.161 98.4825 35.2235 98.4825 44.67C98.4827 45.3014 98.5226 45.9323 98.602 46.5588C96.8737 43.6493 93.0348 42.1687 87.58 41.0425C80.6244 39.6347 79.6629 39.0129 79.8013 37.4807C79.935 36.0213 82.2707 34.6792 85.7555 34.6792C88.471 34.7136 91.1496 35.3129 93.621 36.439V29.4163C90.9087 28.5652 88.0845 28.1247 85.242 28.1094C76.4689 28.1094 70.5803 32.3164 70.1137 38.0931V38.2034C68.0031 32.5088 63.0455 28.2408 54.5163 28.2408C44.2588 28.2408 37.2493 35.7491 37.2493 44.8459C37.2493 45.0806 37.2493 45.3152 37.2657 45.5358C35.338 41.3452 30.3054 39.4141 23.5093 37.9312C15.489 36.209 14.347 35.4183 14.347 33.5881C14.347 31.8331 16.3966 30.3337 19.5906 30.4018C21.181 30.4162 22.7557 30.7182 24.2386 31.2934C26.2274 28.8257 28.3515 26.4703 30.6009 24.2379C27.0775 22.9791 23.36 22.3509 19.6188 22.382C10.0789 22.382 3.41406 27.1591 3.41406 34.3484C3.41406 39.8576 6.29386 42.3635 11.3312 44.0787C11.6032 44.1631 12.3935 44.4095 12.8508 44.5479C14.5862 45.0524 16.5326 45.4982 18.669 45.9558C26.5392 47.6451 27.1958 49.0647 27.1958 50.6273C27.1958 52.4692 25.0055 53.5673 21.333 53.5673C17.1423 53.5673 13.2635 52.3331 9.20414 49.7052C7.12403 52.5209 4.98294 55.6133 3.83149 57.5115C9.11783 60.4205 15.0445 61.9679 21.0774 62.0142H21.1994C31.3654 61.9978 37.7746 57.6054 38.1053 50.4256C40.2557 56.9766 46.285 61.2329 54.4343 61.2329C56.0031 61.2329 58.2544 61.1812 61.9644 60.2615V53.267C58.5171 54.2665 57.0397 54.3698 55.0135 54.2665C50.9635 54.0577 47.6569 51.7724 46.7071 47.7695H71.2112C71.2745 46.9506 71.3378 46.425 71.3378 45.5475V45.4278C71.3386 44.5717 71.2908 43.7163 71.1948 42.8656C73.0568 45.4466 77.142 46.4837 82.7444 47.617C89.5663 49.0037 89.9486 50.0478 89.9486 51.648C89.9486 53.0558 88.1311 54.6842 84.0999 54.5504C79.9584 54.4144 75.1111 53.1802 71.366 51.0614V59.1235C75.2729 60.8715 80.2258 61.9602 84.0718 61.9602C93.3021 61.9602 99.6362 56.5636 99.6362 50.6977C99.6362 50.5687 99.6362 50.442 99.6362 50.3153C101.278 54.1445 104.481 57.0517 108.13 58.8278C111.779 60.604 115.653 61.1531 118.852 61.1742C120.552 61.1936 122.25 61.0688 123.929 60.8011V53.992C123.122 54.1207 122.306 54.185 121.488 54.1844C114.659 54.1844 109.118 49.8859 109.118 44.5831C109.118 39.2804 114.647 34.9795 121.476 34.9795ZM46.7071 42.2133C47.5279 38.1776 50.328 35.5473 54.6312 35.5473C59.0025 35.5473 61.7346 38.2363 62.3513 42.2133H46.7071Z" fill="#004C99"/>
<path d="M13.1608 44.6508C10.682 47.5344 5.79242 54.2708 3.83894 57.5088C2.50265 56.7533 1.21997 55.9066 0 54.9747C2.96891 51.725 7.50435 46.9314 11.2331 44.0454C11.2331 44.0454 12.9333 44.571 13.1608 44.6555V44.6508Z" fill="#F6BE00"/>
</svg>
